<svg width="278" height="73" viewBox="0 0 278 73" fill="none" xmlns="http://www.w3.org/2000/svg">
<path d="M25.2324 72.8081C39.1679 72.8081 50.4648 61.5112 50.4648 47.5757C50.4648 33.6402 39.1679 22.3433 25.2324 22.3433C11.2969 22.3433 0 33.6402 0 47.5757C0 61.5112 11.2969 72.8081 25.2324 72.8081Z" fill="#46E0FE"/>
<path opacity="0.7" d="M40.6416 50.4648C54.5771 50.4648 65.874 39.1679 65.874 25.2324C65.874 11.2969 54.5771 0 40.6416 0C26.7061 0 15.4092 11.2969 15.4092 25.2324C15.4092 39.1679 26.7061 50.4648 40.6416 50.4648Z" fill="#1F55D7"/>
<path d="M59.9026 62.4068C63.2003 62.4068 65.8736 59.7335 65.8736 56.4358C65.8736 53.1381 63.2003 50.4648 59.9026 50.4648C56.6049 50.4648 53.9316 53.1381 53.9316 56.4358C53.9316 59.7335 56.6049 62.4068 59.9026 62.4068Z" fill="#FDCC02"/>
<path d="M84.5866 58V21.6364H98.223C101.017 21.6364 103.36 22.1572 105.254 23.1989C107.16 24.2405 108.598 25.6728 109.569 27.4957C110.551 29.3068 111.043 31.3665 111.043 33.6747C111.043 36.0066 110.551 38.0781 109.569 39.8892C108.586 41.7003 107.136 43.1267 105.219 44.1683C103.301 45.1982 100.94 45.7131 98.1342 45.7131H89.0966V40.2976H97.2464C98.88 40.2976 100.218 40.0135 101.259 39.4453C102.301 38.8771 103.07 38.0959 103.567 37.1016C104.076 36.1072 104.331 34.965 104.331 33.6747C104.331 32.3845 104.076 31.2481 103.567 30.2656C103.07 29.2831 102.295 28.5196 101.241 27.9751C100.2 27.4188 98.8563 27.1406 97.2109 27.1406H91.174V58H84.5866ZM123.84 58.5504C122.112 58.5504 120.555 58.2427 119.17 57.6271C117.797 56.9998 116.708 56.0765 115.903 54.8572C115.11 53.638 114.714 52.1347 114.714 50.3473C114.714 48.8085 114.998 47.536 115.566 46.5298C116.134 45.5237 116.909 44.7188 117.892 44.1151C118.874 43.5114 119.981 43.0556 121.212 42.7479C122.455 42.4283 123.739 42.1974 125.065 42.0554C126.663 41.8897 127.959 41.7417 128.954 41.6115C129.948 41.4695 130.67 41.2564 131.12 40.9723C131.581 40.6764 131.812 40.2206 131.812 39.6051V39.4986C131.812 38.161 131.416 37.1252 130.623 36.3913C129.83 35.6574 128.687 35.2905 127.196 35.2905C125.622 35.2905 124.373 35.6338 123.449 36.3203C122.538 37.0069 121.922 37.8177 121.603 38.7528L115.601 37.9006C116.075 36.2434 116.856 34.8584 117.945 33.7457C119.034 32.6212 120.366 31.7808 121.94 31.2244C123.515 30.6562 125.255 30.3722 127.16 30.3722C128.474 30.3722 129.782 30.526 131.084 30.8338C132.386 31.1416 133.576 31.6506 134.653 32.3608C135.73 33.0592 136.595 34.0121 137.246 35.2195C137.908 36.4268 138.24 37.9361 138.24 39.7472V58H132.061V54.2536H131.848C131.457 55.0111 130.907 55.7214 130.197 56.3842C129.498 57.0353 128.616 57.562 127.551 57.9645C126.497 58.3551 125.26 58.5504 123.84 58.5504ZM125.509 53.8274C126.799 53.8274 127.918 53.5729 128.865 53.0639C129.812 52.5431 130.54 51.8565 131.049 51.0043C131.57 50.152 131.83 49.2228 131.83 48.2166V45.0028C131.629 45.1686 131.286 45.3224 130.8 45.4645C130.327 45.6065 129.794 45.7308 129.202 45.8374C128.61 45.9439 128.024 46.0386 127.444 46.1214C126.864 46.2043 126.361 46.2753 125.935 46.3345C124.976 46.4647 124.118 46.6778 123.361 46.9737C122.603 47.2696 122.005 47.6839 121.567 48.2166C121.129 48.7375 120.91 49.4122 120.91 50.2408C120.91 51.4245 121.342 52.3182 122.206 52.9219C123.071 53.5256 124.171 53.8274 125.509 53.8274ZM147.721 68.2273C146.845 68.2273 146.035 68.1563 145.289 68.0142C144.555 67.884 143.969 67.7301 143.531 67.5526L145.023 62.5455C145.958 62.8177 146.792 62.9479 147.526 62.9361C148.26 62.9242 148.905 62.6934 149.461 62.2436C150.03 61.8056 150.509 61.0717 150.9 60.0419L151.45 58.5682L141.56 30.7273H148.378L154.664 51.3239H154.948L161.251 30.7273H168.087L157.167 61.3026C156.658 62.7467 155.984 63.9837 155.143 65.0135C154.303 66.0552 153.273 66.8482 152.054 67.3928C150.846 67.9491 149.402 68.2273 147.721 68.2273Z" fill="white"/>
<path d="M169.512 27.1584V21.6364H198.525V27.1584H187.286V58H180.751V27.1584H169.512ZM201.002 58V30.7273H207.234V35.2727H207.518C208.015 33.6984 208.868 32.4851 210.075 31.6328C211.294 30.7687 212.685 30.3366 214.248 30.3366C214.603 30.3366 214.999 30.3544 215.437 30.3899C215.887 30.4136 216.26 30.455 216.556 30.5142V36.4268C216.283 36.3321 215.851 36.2493 215.26 36.1783C214.68 36.0954 214.117 36.054 213.573 36.054C212.401 36.054 211.347 36.3085 210.412 36.8175C209.489 37.3146 208.761 38.0071 208.228 38.8949C207.696 39.7827 207.429 40.8066 207.429 41.9666V58H201.002ZM238.209 46.5298V30.7273H244.636V58H238.404V53.1527H238.12C237.504 54.6797 236.492 55.9285 235.084 56.8991C233.687 57.8698 231.965 58.3551 229.917 58.3551C228.129 58.3551 226.549 57.9586 225.176 57.1655C223.815 56.3606 222.75 55.1946 221.98 53.6676C221.211 52.1288 220.826 50.2704 220.826 48.0923V30.7273H227.254V47.098C227.254 48.8262 227.727 50.1993 228.674 51.2173C229.621 52.2353 230.864 52.7443 232.403 52.7443C233.35 52.7443 234.267 52.5135 235.155 52.0518C236.043 51.5902 236.771 50.9036 237.339 49.9922C237.919 49.0689 238.209 47.9148 238.209 46.5298ZM263.32 58.5327C260.585 58.5327 258.224 57.9645 256.235 56.8281C254.258 55.6799 252.737 54.0582 251.672 51.9631C250.607 49.8561 250.074 47.3762 250.074 44.5234C250.074 41.718 250.607 39.2559 251.672 37.1371C252.749 35.0064 254.253 33.3492 256.182 32.1655C258.111 30.9699 260.378 30.3722 262.982 30.3722C264.663 30.3722 266.249 30.6444 267.741 31.1889C269.244 31.7216 270.57 32.5502 271.718 33.6747C272.878 34.7992 273.79 36.2315 274.453 37.9716C275.115 39.6998 275.447 41.7595 275.447 44.1506V46.1214H253.093V41.7891H269.286C269.274 40.558 269.008 39.4631 268.487 38.5043C267.966 37.5336 267.238 36.7701 266.303 36.2138C265.379 35.6574 264.302 35.3793 263.071 35.3793C261.757 35.3793 260.603 35.6989 259.609 36.3381C258.615 36.9654 257.839 37.794 257.283 38.8239C256.738 39.8419 256.46 40.9605 256.448 42.1797V45.9616C256.448 47.5478 256.738 48.9091 257.318 50.0455C257.898 51.17 258.709 52.0341 259.751 52.6378C260.793 53.2296 262.012 53.5256 263.409 53.5256C264.344 53.5256 265.19 53.3954 265.948 53.1349C266.705 52.8627 267.362 52.4661 267.919 51.9453C268.475 51.4245 268.895 50.7794 269.179 50.0099L275.181 50.6847C274.802 52.2708 274.08 53.6558 273.014 54.8395C271.961 56.0114 270.611 56.9228 268.966 57.5739C267.321 58.2131 265.439 58.5327 263.32 58.5327Z" fill="#3F91FF"/>
</svg>
